#Comment line ignore any data following # character 
#Hierarchical Translation and Rotation (.htr) file 
[Header]	
#Header keywords are followed by a single value 
FileType HTR		#Single word string
DataType HTRS		#Translation followed by rotation and scale data
FileVersion 1		#integer
NumSegments 84		#integer
NumFrames 2		#integer
DataFrameRate 30		#integer, data frame rate in this file
EulerRotationOrder ZYX
CalibrationUnits mm
RotationUnits Degrees
GlobalAxisofGravity Y
BoneLengthAxis Y
ScaleFactor 1.00
[SegmentNames&Hierarchy]
#CHILD	PARENT
MASTER GLOBAL
root MASTER
chest root
L_mid_tent01 root
R_mid_tent01 root
spine01 root
Bip01_Neck chest
L_humerus chest
R_humerus chest
weapon_bone chest
Bip01_Head Bip01_Neck
eye_left_bone Bip01_Head
eye_right_bone Bip01_Head
L_forearm L_humerus
L_front_hand L_forearm
L_weapon_bone L_forearm
L_front_hand01_01 L_front_hand
L_front_hand02_01 L_front_hand
L_front_hand03_01 L_front_hand
L_front_hand01_02 L_front_hand01_01
L_front_hand02_02 L_front_hand02_01
L_front_hand03_02 L_front_hand03_01
R_forearm R_humerus
R_front_hand R_forearm
R_weapon_bone R_forearm
R_front_hand01_01 R_front_hand
R_front_hand02_01 R_front_hand
R_front_hand03_01 R_front_hand
R_front_hand01_02 R_front_hand01_01
R_front_hand02_02 R_front_hand02_01
R_front_hand03_02 R_front_hand03_01
null_rope01_connect L_mid_tent01
Rope1_Seg01 null_rope01_connect
Rope1_Seg02 Rope1_Seg01
Rope1_Seg03 Rope1_Seg02
Rope1_Seg04 Rope1_Seg03
Rope1_Seg05 Rope1_Seg04
Rope1_Seg06 Rope1_Seg05
Rope1_Seg07 Rope1_Seg06
Rope1_Seg09 Rope1_Seg07
L_mid_hand01 Rope1_Seg09
L_mid_hand02 Rope1_Seg09
L_mid_hand03 Rope1_Seg09
null_rope02_connect R_mid_tent01
Rope2_Seg01 null_rope02_connect
Rope2_Seg02 Rope2_Seg01
Rope2_Seg03 Rope2_Seg02
Rope2_Seg04 Rope2_Seg03
Rope2_Seg05 Rope2_Seg04
Rope2_Seg06 Rope2_Seg05
Rope2_Seg07 Rope2_Seg06
Rope2_Seg09 Rope2_Seg07
R_mid_hand01 Rope2_Seg09
R_mid_hand02 Rope2_Seg09
R_mid_hand03 Rope2_Seg09
spine02 spine01
spine03 spine02
pelvis spine03
null_rope03_connect pelvis
null_rope04_connect pelvis
Rope3_Seg01 null_rope03_connect
Rope3_Seg02 Rope3_Seg01
Rope3_Seg03 Rope3_Seg02
Rope3_Seg04 Rope3_Seg03
Rope3_Seg05 Rope3_Seg04
Rope3_Seg06 Rope3_Seg05
Rope3_Seg07 Rope3_Seg06
Rope3_Seg08 Rope3_Seg07
Rope3_Seg09 Rope3_Seg08
R_rear_hand01 Rope3_Seg09
R_rear_hand02 Rope3_Seg09
R_rear_hand03 Rope3_Seg09
Rope4_Seg01 null_rope04_connect
Rope4_Seg02 Rope4_Seg01
Rope4_Seg03 Rope4_Seg02
Rope4_Seg04 Rope4_Seg03
Rope4_Seg05 Rope4_Seg04
Rope4_Seg06 Rope4_Seg05
Rope4_Seg07 Rope4_Seg06
Rope4_Seg08 Rope4_Seg07
Rope4_Seg09 Rope4_Seg08
L_rear_hand01 Rope4_Seg09
L_rear_hand02 Rope4_Seg09
L_rear_hand03 Rope4_Seg09
[BasePosition]
#SegmentName Tx, Ty, Tz, Rx, Ry, Rz, BoneLength
MASTER 0.000000 0.000000 0.000000 -90.000000 0.000000 0.000000 10.000000 
root 0.000000 0.000000 0.000000 0.000000 0.000000 0.000000 10.000000 
chest 0.000000 0.000000 0.000000 0.000000 0.000000 0.000000 10.000000 
L_mid_tent01 0.000000 0.000000 0.000000 0.000000 0.000000 0.000000 10.000000 
R_mid_tent01 0.000000 0.000000 0.000000 0.000000 0.000000 0.000000 10.000000 
spine01 0.000000 0.000000 0.000000 0.000000 0.000000 0.000000 10.000000 
Bip01_Neck 0.000000 0.000000 0.000000 0.000000 0.000000 0.000000 10.000000 
L_humerus 0.000000 0.000000 0.000000 0.000000 0.000000 0.000000 10.000000 
R_humerus 0.000000 0.000000 0.000000 0.000000 0.000000 0.000000 10.000000 
weapon_bone 0.000000 0.000000 0.000000 0.000000 0.000000 0.000000 10.000000 
Bip01_Head 0.000000 0.000000 0.000000 0.000000 0.000000 0.000000 10.000000 
eye_left_bone 0.000000 0.000000 0.000000 0.000000 0.000000 0.000000 10.000000 
eye_right_bone 0.000000 0.000000 0.000000 0.000000 0.000000 0.000000 10.000000 
L_forearm 0.000000 0.000000 0.000000 0.000000 0.000000 0.000000 10.000000 
L_front_hand 0.000000 0.000000 0.000000 0.000000 0.000000 0.000000 10.000000 
L_weapon_bone 0.000000 0.000000 0.000000 0.000000 0.000000 0.000000 10.000000 
L_front_hand01_01 0.000000 0.000000 0.000000 0.000000 0.000000 0.000000 10.000000 
L_front_hand02_01 0.000000 0.000000 0.000000 0.000000 0.000000 0.000000 10.000000 
L_front_hand03_01 0.000000 0.000000 0.000000 0.000000 0.000000 0.000000 10.000000 
L_front_hand01_02 0.000000 0.000000 0.000000 0.000000 0.000000 0.000000 10.000000 
L_front_hand02_02 0.000000 0.000000 0.000000 0.000000 0.000000 0.000000 10.000000 
L_front_hand03_02 0.000000 0.000000 0.000000 0.000000 0.000000 0.000000 10.000000 
R_forearm 0.000000 0.000000 0.000000 0.000000 0.000000 0.000000 10.000000 
R_front_hand 0.000000 0.000000 0.000000 0.000000 0.000000 0.000000 10.000000 
R_weapon_bone 0.000000 0.000000 0.000000 0.000000 0.000000 0.000000 10.000000 
R_front_hand01_01 0.000000 0.000000 0.000000 0.000000 0.000000 0.000000 10.000000 
R_front_hand02_01 0.000000 0.000000 0.000000 0.000000 0.000000 0.000000 10.000000 
R_front_hand03_01 0.000000 0.000000 0.000000 0.000000 0.000000 0.000000 10.000000 
R_front_hand01_02 0.000000 0.000000 0.000000 0.000000 0.000000 0.000000 10.000000 
R_front_hand02_02 0.000000 0.000000 0.000000 0.000000 0.000000 0.000000 10.000000 
R_front_hand03_02 0.000000 0.000000 0.000000 0.000000 0.000000 0.000000 10.000000 
null_rope01_connect 0.000000 0.000000 0.000000 0.000000 0.000000 0.000000 10.000000 
Rope1_Seg01 0.000000 0.000000 0.000000 0.000000 0.000000 0.000000 10.000000 
Rope1_Seg02 0.000000 0.000000 0.000000 0.000000 0.000000 0.000000 10.000000 
Rope1_Seg03 0.000000 0.000000 0.000000 0.000000 0.000000 0.000000 10.000000 
Rope1_Seg04 0.000000 0.000000 0.000000 0.000000 0.000000 0.000000 10.000000 
Rope1_Seg05 0.000000 0.000000 0.000000 0.000000 0.000000 0.000000 10.000000 
Rope1_Seg06 0.000000 0.000000 0.000000 0.000000 0.000000 0.000000 10.000000 
Rope1_Seg07 0.000000 0.000000 0.000000 0.000000 0.000000 0.000000 10.000000 
Rope1_Seg09 0.000000 0.000000 0.000000 0.000000 0.000000 0.000000 10.000000 
L_mid_hand01 0.000000 0.000000 0.000000 0.000000 0.000000 0.000000 10.000000 
L_mid_hand02 0.000000 0.000000 0.000000 0.000000 0.000000 0.000000 10.000000 
L_mid_hand03 0.000000 0.000000 0.000000 0.000000 0.000000 0.000000 10.000000 
null_rope02_connect 0.000000 0.000000 0.000000 0.000000 0.000000 0.000000 10.000000 
Rope2_Seg01 0.000000 0.000000 0.000000 0.000000 0.000000 0.000000 10.000000 
Rope2_Seg02 0.000000 0.000000 0.000000 0.000000 0.000000 0.000000 10.000000 
Rope2_Seg03 0.000000 0.000000 0.000000 0.000000 0.000000 0.000000 10.000000 
Rope2_Seg04 0.000000 0.000000 0.000000 0.000000 0.000000 0.000000 10.000000 
Rope2_Seg05 0.000000 0.000000 0.000000 0.000000 0.000000 0.000000 10.000000 
Rope2_Seg06 0.000000 0.000000 0.000000 0.000000 0.000000 0.000000 10.000000 
Rope2_Seg07 0.000000 0.000000 0.000000 0.000000 0.000000 0.000000 10.000000 
Rope2_Seg09 0.000000 0.000000 0.000000 0.000000 0.000000 0.000000 10.000000 
R_mid_hand01 0.000000 0.000000 0.000000 0.000000 0.000000 0.000000 10.000000 
R_mid_hand02 0.000000 0.000000 0.000000 0.000000 0.000000 0.000000 10.000000 
R_mid_hand03 0.000000 0.000000 0.000000 0.000000 0.000000 0.000000 10.000000 
spine02 0.000000 0.000000 0.000000 0.000000 0.000000 0.000000 10.000000 
spine03 0.000000 0.000000 0.000000 0.000000 0.000000 0.000000 10.000000 
pelvis 0.000000 0.000000 0.000000 0.000000 0.000000 0.000000 10.000000 
null_rope03_connect 0.000000 0.000000 0.000000 0.000000 0.000000 0.000000 10.000000 
null_rope04_connect 0.000000 0.000000 0.000000 0.000000 0.000000 0.000000 10.000000 
Rope3_Seg01 0.000000 0.000000 0.000000 0.000000 0.000000 0.000000 10.000000 
Rope3_Seg02 0.000000 0.000000 0.000000 0.000000 0.000000 0.000000 10.000000 
Rope3_Seg03 0.000000 0.000000 0.000000 0.000000 0.000000 0.000000 10.000000 
Rope3_Seg04 0.000000 0.000000 0.000000 0.000000 0.000000 0.000000 10.000000 
Rope3_Seg05 0.000000 0.000000 0.000000 0.000000 0.000000 0.000000 10.000000 
Rope3_Seg06 0.000000 0.000000 0.000000 0.000000 0.000000 0.000000 10.000000 
Rope3_Seg07 0.000000 0.000000 0.000000 0.000000 0.000000 0.000000 10.000000 
Rope3_Seg08 0.000000 0.000000 0.000000 0.000000 0.000000 0.000000 10.000000 
Rope3_Seg09 0.000000 0.000000 0.000000 0.000000 0.000000 0.000000 10.000000 
R_rear_hand01 0.000000 0.000000 0.000000 0.000000 0.000000 0.000000 10.000000 
R_rear_hand02 0.000000 0.000000 0.000000 0.000000 0.000000 0.000000 10.000000 
R_rear_hand03 0.000000 0.000000 0.000000 0.000000 0.000000 0.000000 10.000000 
Rope4_Seg01 0.000000 0.000000 0.000000 0.000000 0.000000 0.000000 10.000000 
Rope4_Seg02 0.000000 0.000000 0.000000 0.000000 0.000000 0.000000 10.000000 
Rope4_Seg03 0.000000 0.000000 0.000000 0.000000 0.000000 0.000000 10.000000 
Rope4_Seg04 0.000000 0.000000 0.000000 0.000000 0.000000 0.000000 10.000000 
Rope4_Seg05 0.000000 0.000000 0.000000 0.000000 0.000000 0.000000 10.000000 
Rope4_Seg06 0.000000 0.000000 0.000000 0.000000 0.000000 0.000000 10.000000 
Rope4_Seg07 0.000000 0.000000 0.000000 0.000000 0.000000 0.000000 10.000000 
Rope4_Seg08 0.000000 0.000000 0.000000 0.000000 0.000000 0.000000 10.000000 
Rope4_Seg09 0.000000 0.000000 0.000000 0.000000 0.000000 0.000000 10.000000 
L_rear_hand01 0.000000 0.000000 0.000000 0.000000 0.000000 0.000000 10.000000 
L_rear_hand02 0.000000 0.000000 0.000000 0.000000 0.000000 0.000000 10.000000 
L_rear_hand03 0.000000 0.000000 0.000000 0.000000 0.000000 0.000000 10.000000 
#Beginning of Data. Separated by tabs
#Fr	Tx	Ty	Tz	Rx	Ry	Rz	SF
[MASTER]
3 0.000000 0.000000 0.000000 0.001660 0.001660 0.001660 0.000000
4 0.000000 0.000000 0.000000 0.001660 0.001660 0.001660 0.000000
[root]
3 -76.201591 -63.868023 1035.151245 -91.573502 -7.825691 -95.488213 1039.915283
4 -83.175308 -63.553921 1069.767090 -91.701920 -7.918792 -94.291275 1074.876221
[chest]
3 -84.512650 -34.090519 0.000000 -5.032700 -0.169521 162.527283 91.129311
4 -84.512650 -34.090519 0.000000 -4.594945 -0.295846 171.076904 91.129311
[L_mid_tent01]
3 27.472668 22.078321 -251.030533 -12.828424 19.474604 16.964565 253.492661
4 27.513294 22.055016 -251.291626 -10.662966 18.619682 37.348743 253.753601
[R_mid_tent01]
3 23.228794 24.509907 226.238495 -156.785904 -32.661556 -2.831188 228.744751
4 23.228794 24.509907 226.238495 -162.673416 -44.006123 14.297762 228.744751
[spine01]
3 -0.361383 -0.195265 0.000000 -0.367893 0.344753 10.887656 0.410763
4 -0.361383 -0.195265 0.000000 -0.337478 0.351725 10.867845 0.410763
[Bip01_Neck]
3 165.484543 71.581718 0.000119 175.896118 1.177290 24.871181 180.302734
4 165.484543 71.581718 0.000119 175.896118 1.177290 24.871180 180.302734
[L_humerus]
3 -13.983130 -135.272980 -120.471481 -92.103043 0.558677 -149.083237 181.680161
4 -13.983130 -135.272980 -120.471481 -90.326309 1.587503 -153.625015 181.680161
[R_humerus]
3 -13.983309 -135.273102 125.287651 104.418083 -1.092985 -155.147064 184.909012
4 -13.983309 -135.273102 125.287651 102.948006 -1.559137 -159.174866 184.909012
[weapon_bone]
3 235.964890 -300.705902 0.000000 0.000000 -89.951546 -128.212341 382.234833
4 235.964890 -300.705902 0.000000 0.000000 -89.951546 -128.212341 382.234833
[Bip01_Head]
3 215.206421 190.832504 -13.987436 6.058022 5.536743 -61.838554 287.969604
4 219.608963 185.831970 -9.718122 3.293699 3.834247 -57.242886 287.847290
[eye_left_bone]
3 -24.626970 125.451866 -64.772606 0.000000 -90.000000 -99.840431 143.318359
4 -24.626970 125.451866 -64.772606 0.000000 -90.000000 -99.840431 143.318359
[eye_right_bone]
3 -24.626970 125.451866 64.327362 0.000000 -90.000000 80.159401 143.117676
4 -24.626970 125.451866 64.327362 0.000000 -89.960434 80.159386 143.117676
[L_forearm]
3 322.776093 0.000000 -0.000119 0.000361 0.002319 -72.310112 322.776093
4 322.776093 0.000000 -0.000119 0.000307 0.002327 -74.979179 322.776093
[L_front_hand]
3 241.149185 -0.042021 -3.300071 -177.871490 -0.781728 -61.297764 241.171753
4 241.149185 -0.042021 -3.300071 -177.836960 -0.688695 -63.813866 241.171753
[L_weapon_bone]
3 156.183838 0.000000 0.000000 0.001660 0.001660 0.001660 156.183838
4 156.183838 0.000000 0.000000 0.001660 0.001660 0.001660 156.183838
[L_front_hand01_01]
3 86.095154 20.947098 -0.655860 0.371015 -0.470120 -0.379798 88.609184
4 86.095154 20.947098 -0.655860 0.372784 -0.468533 -0.592033 88.609184
[L_front_hand02_01]
3 86.935165 -11.437475 24.513514 116.901054 -0.153047 -0.424834 91.046425
4 86.935165 -11.437475 24.513514 116.900970 0.036404 -0.328531 91.046425
[L_front_hand03_01]
3 86.637497 -14.123976 -20.424902 -118.325600 -0.925847 -2.169497 90.126129
4 86.637497 -14.123976 -20.424902 -118.327171 -1.113562 -2.068413 90.126129
[L_front_hand01_02]
3 71.020905 -0.000179 0.000030 0.001534 0.001777 -8.378850 71.020905
4 71.020905 -0.000179 0.000030 0.001534 0.001777 -8.378850 71.020905
[L_front_hand02_02]
3 71.020927 -0.000119 0.000060 0.001534 0.001777 -8.378850 71.020927
4 71.020927 -0.000119 0.000060 0.001534 0.001777 -8.378850 71.020927
[L_front_hand03_02]
3 71.020905 -0.000060 0.000060 0.001534 0.001777 -8.378850 71.020905
4 71.020905 -0.000060 0.000060 0.001534 0.001777 -8.378850 71.020905
[R_forearm]
3 322.776428 -0.000060 0.000030 0.209202 -0.019968 -85.445328 322.776428
4 322.776428 -0.000060 0.000030 0.212972 -0.014755 -86.445717 322.776428
[R_front_hand]
3 238.847015 -0.006795 2.210259 -1.643253 -0.533340 -96.724579 238.857239
4 238.847015 -0.006795 2.210259 -1.635990 -0.553038 -97.384453 238.857239
[R_weapon_bone]
3 155.664093 0.002503 -0.000030 0.003487 0.001180 -90.988930 155.664078
4 155.664093 0.002503 -0.000030 0.003487 0.001180 -90.988930 155.664078
[R_front_hand01_01]
3 87.624611 14.231146 22.918642 -116.905106 0.553868 0.173164 91.683487
4 87.624611 14.231146 22.918642 -116.906036 0.701692 0.098246 91.683487
[R_front_hand02_01]
3 89.356956 14.367283 -19.491137 118.345253 -1.352735 2.178510 92.579636
4 89.356956 14.367283 -19.491137 118.347069 -1.497960 2.100211 92.579636
[R_front_hand03_01]
3 87.286232 -22.307278 -0.143439 -0.377211 -0.255612 0.931875 90.091743
4 87.286232 -22.307278 -0.143439 -0.378023 -0.254165 1.097346 90.091743
[R_front_hand01_02]
3 71.020905 0.000060 0.000119 0.001777 0.001534 8.377220 71.020905
4 71.020905 0.000060 0.000119 0.001777 0.001534 8.377220 71.020905
[R_front_hand02_02]
3 71.020844 -0.000030 -0.000119 0.001777 0.001534 8.377220 71.020836
4 71.020844 -0.000030 -0.000119 0.001777 0.001534 8.377220 71.020836
[R_front_hand03_02]
3 71.020905 0.000000 0.000030 0.001777 0.001534 8.377220 71.020905
4 71.020905 0.000000 0.000030 0.001777 0.001534 8.377220 71.020905
[null_rope01_connect]
3 328.732483 0.000000 -0.000238 -128.273666 -61.484428 -153.729279 328.732483
4 328.732483 0.000000 -0.000238 -143.387253 -64.732689 -158.444534 328.732483
[Rope1_Seg01]
3 0.000144 0.000000 0.000000 66.691353 -31.257891 -137.223236 0.000144
4 0.000140 0.000000 0.000000 86.566017 -23.000374 -155.657806 0.000140
[Rope1_Seg02]
3 139.999863 -0.000179 0.000000 -12.076764 20.642517 -8.759291 139.999863
4 139.999863 -0.000179 0.000000 -12.298654 23.226315 -18.395571 139.999863
[Rope1_Seg03]
3 139.999924 0.000060 -0.000060 -93.270363 30.209381 -26.304220 139.999924
4 139.999924 0.000060 -0.000060 160.063339 26.046289 -38.526104 139.999924
[Rope1_Seg04]
3 139.999924 -0.000060 -0.000119 11.594340 -28.254532 17.089535 139.999924
4 139.999924 -0.000060 -0.000119 76.126144 -22.138266 -27.476929 139.999924
[Rope1_Seg05]
3 139.999832 0.000119 -0.000060 5.583784 -17.569193 7.341825 139.999832
4 139.999832 0.000119 -0.000060 15.746259 -25.334330 0.564749 139.999832
[Rope1_Seg06]
3 139.999954 0.000119 -0.000060 0.264742 -3.339855 2.859015 139.999954
4 139.999954 0.000119 -0.000060 1.090530 -5.181389 2.749891 139.999954
[Rope1_Seg07]
3 139.999985 0.000060 0.000000 0.143090 -1.884953 1.626711 139.999985
4 139.999985 0.000060 0.000000 0.497946 -2.790117 1.562791 139.999985
[Rope1_Seg09]
3 121.602913 0.000119 -0.000089 -87.160522 -1.362041 0.847858 121.602913
4 121.602913 0.000119 -0.000089 -84.466263 -1.358662 0.848224 121.602913
[L_mid_hand01]
3 103.859421 1.038730 8.195221 105.310707 -20.138229 -5.914001 104.187431
4 103.859421 1.038730 8.195221 105.121964 -18.145369 -5.344499 104.187431
[L_mid_hand02]
3 105.572853 -4.139662 -10.864139 -138.703018 18.388996 -19.161890 106.211075
4 105.572853 -4.139662 -10.864139 -138.209610 17.019897 -17.540253 106.211075
[L_mid_hand03]
3 104.641464 17.579376 -3.913581 -17.691015 6.365432 23.062113 106.179977
4 104.641464 17.579376 -3.913581 -17.899601 5.732238 21.088562 106.179977
[null_rope02_connect]
3 328.732849 0.000179 -0.000119 -119.763596 56.432220 -33.906654 328.732849
4 328.732849 0.000179 -0.000119 -121.536919 48.110950 -18.412340 328.732849
[Rope2_Seg01]
3 0.000095 0.000153 0.000004 88.558632 -1.038247 -89.883659 0.000180
4 0.000095 0.000153 0.000006 103.864319 20.349005 -105.830772 0.000180
[Rope2_Seg02]
3 139.999741 -0.000060 -0.000119 -7.428757 8.481044 5.321805 139.999756
4 139.999741 -0.000060 -0.000119 -16.255306 25.894609 10.128423 139.999756
[Rope2_Seg03]
3 140.000107 0.000030 0.000000 -3.911150 3.765408 2.502386 140.000107
4 140.000107 0.000030 0.000000 -13.798606 8.913166 9.227990 140.000107
[Rope2_Seg04]
3 139.999802 0.000000 -0.000060 -3.471272 -2.149532 4.843805 139.999802
4 139.999802 0.000000 -0.000060 2.699175 -14.061964 2.540151 139.999802
[Rope2_Seg05]
3 139.999985 -0.000060 0.000119 -1.912377 -2.302444 3.384992 139.999985
4 139.999985 -0.000060 0.000119 0.568161 -6.485022 1.718213 139.999985
[Rope2_Seg06]
3 139.999893 -0.000030 -0.000119 -1.068452 -1.014827 1.861039 139.999893
4 139.999893 -0.000030 -0.000119 0.021821 -3.208925 1.223144 139.999893
[Rope2_Seg07]
3 139.999893 0.000060 -0.000060 -0.708885 -0.732327 1.282256 139.999893
4 139.999893 0.000060 -0.000060 -0.008314 -2.115203 0.808108 139.999893
[Rope2_Seg09]
3 121.338966 0.000089 -0.000060 30.594019 -1.402437 -0.771587 121.338966
4 121.338966 0.000089 -0.000060 27.491859 -1.442988 -0.692453 121.338966
[R_mid_hand01]
3 104.680779 11.144459 -10.335981 -44.965611 17.118616 19.152899 105.778534
4 104.680779 11.144459 -10.335981 -45.539944 15.124501 17.092497 105.778534
[R_mid_hand02]
3 104.070427 2.443552 8.231699 74.579361 -21.136568 6.216436 104.424065
4 104.070427 2.443552 8.231699 74.844398 -18.427382 5.430216 104.424065
[R_mid_hand03]
3 106.028137 -11.221827 -5.996406 -166.053833 7.525734 -25.088930 106.788818
4 106.028137 -11.221827 -5.996406 -165.706116 6.838284 -22.341476 106.788818
[spine02]
3 129.756927 0.001550 0.000119 -0.047975 -4.100375 -7.192033 129.756927
4 129.756927 0.001550 0.000119 -0.055906 -4.152655 -7.087715 129.756927
[spine03]
3 79.082901 0.005760 -0.319235 1.962654 -2.699833 23.701210 79.083542
4 79.066544 0.008602 -0.478858 1.984345 -2.513047 23.273540 79.067993
[pelvis]
3 169.435242 0.051022 0.000000 0.002560 2.954154 -4.187121 169.435257
4 169.435242 0.051022 0.000000 0.006102 2.907182 -4.115207 169.435257
[null_rope03_connect]
3 -1.257226 -2.466202 137.391083 -96.219963 -87.072296 170.614365 137.418976
4 -1.257226 -2.466202 137.391083 -103.885101 -88.144173 178.640778 137.418976
[null_rope04_connect]
3 -1.259640 -2.480268 -137.844437 -96.219963 -87.072296 170.614365 137.872513
4 -1.259640 -2.480268 -137.844437 -103.885101 -88.144173 178.640778 137.872513
[Rope3_Seg01]
3 0.000010 0.000036 -0.000144 -129.154694 9.684908 -68.194008 0.000149
4 0.000010 0.000035 -0.000140 -125.823494 9.865254 -54.660015 0.000144
[Rope3_Seg02]
3 139.999924 -0.000119 0.000060 -0.071247 1.975323 0.361523 139.999924
4 139.999924 -0.000119 0.000060 -0.637561 7.042253 4.195070 139.999924
[Rope3_Seg03]
3 139.999924 -0.000119 0.000119 -0.051629 2.158259 0.322215 139.999924
4 139.999924 -0.000119 0.000119 -0.123099 7.644905 4.663964 139.999924
[Rope3_Seg04]
3 139.999924 0.000119 0.000000 -0.153413 2.874815 -0.462287 139.999924
4 139.999924 0.000119 0.000000 0.376844 7.813029 4.837321 139.999924
[Rope3_Seg05]
3 139.999924 -0.000238 0.000060 0.157316 1.760188 1.760075 139.999924
4 139.999924 -0.000238 0.000060 0.142424 0.431197 0.605571 139.999924
[Rope3_Seg06]
3 139.999893 -0.000119 -0.000060 0.379743 0.086438 2.781712 139.999893
4 139.999893 -0.000119 -0.000060 0.352719 -1.213605 -0.457105 139.999893
[Rope3_Seg07]
3 139.999771 0.000060 -0.000119 0.481550 0.391121 1.482129 139.999771
4 139.999771 0.000060 -0.000119 0.506321 0.109542 0.209865 139.999771
[Rope3_Seg08]
3 139.999985 -0.000060 0.000000 0.518458 0.304176 0.913065 139.999985
4 139.999985 -0.000060 0.000000 0.535877 0.070290 0.130575 139.999985
[Rope3_Seg09]
3 90.185997 -0.000179 -0.000060 88.497025 -1.361186 -0.847230 90.185997
4 90.185997 -0.000179 -0.000060 87.042252 -1.361795 -0.847631 90.185997
[R_rear_hand01]
3 103.366196 -6.073594 -10.757982 -159.133499 13.458629 -20.810026 104.101845
4 103.366196 -6.073594 -10.757982 -158.727249 12.787583 -19.025120 104.101845
[R_rear_hand02]
3 100.509819 12.039542 -7.992327 -36.588902 13.760291 20.787975 101.543350
4 100.509819 12.039542 -7.992327 -36.938450 12.649006 19.260857 101.543350
[R_rear_hand03]
3 101.539970 5.215704 5.435467 83.888893 -21.475161 6.107579 101.819031
4 101.539970 5.215704 5.435467 83.963379 -19.626019 5.899879 101.819031
[Rope4_Seg01]
3 -0.000002 0.000066 -0.000081 41.811249 14.930273 -121.092155 0.000104
4 -0.000002 0.000060 -0.000083 37.161514 16.501226 -131.773209 0.000102
[Rope4_Seg02]
3 139.999985 0.000060 0.000119 2.174538 6.078932 15.504475 139.999985
4 139.999985 0.000060 0.000119 4.498170 5.462146 18.107573 139.999985
[Rope4_Seg03]
3 139.999924 0.000000 -0.000238 0.052187 6.041707 11.105625 139.999924
4 139.999924 0.000000 -0.000238 1.143565 6.332103 12.751965 139.999924
[Rope4_Seg04]
3 139.999985 0.000000 0.000119 -0.681622 5.222800 7.526197 139.999985
4 139.999985 0.000000 0.000119 -0.272215 4.689641 8.447578 139.999985
[Rope4_Seg05]
3 139.999802 -0.000060 -0.000119 -1.847033 -1.739686 5.324775 139.999802
4 139.999802 -0.000060 -0.000119 -1.802354 -1.344926 8.335521 139.999802
[Rope4_Seg06]
3 139.999924 0.000000 0.000060 -1.949482 -5.679365 3.971949 139.999924
4 139.999924 0.000000 0.000060 -2.057345 -3.781847 7.091927 139.999924
[Rope4_Seg07]
3 139.999802 0.000000 0.000000 -1.070046 -3.661694 3.020108 139.999802
4 139.999802 0.000000 0.000000 -1.070674 -1.753903 4.406655 139.999802
[Rope4_Seg08]
3 139.999924 0.000000 0.000119 -2.094301 -1.871248 2.014835 139.999924
4 139.999924 0.000000 0.000119 -2.172857 -0.956963 2.676447 139.999924
[Rope4_Seg09]
3 90.185791 0.000060 0.000060 -134.518295 2.227123 0.849578 90.185791
4 90.185791 0.000060 0.000060 -133.260300 2.227475 0.851271 90.185791
[L_rear_hand01]
3 101.696655 -8.392275 -7.654577 -36.822819 -13.019020 160.233536 102.329041
4 101.696655 -8.392275 -7.654577 -37.188801 -11.772993 161.932251 102.329041
[L_rear_hand02]
3 102.726799 -1.568258 5.773216 83.938362 20.238258 174.032837 102.900848
4 102.726799 -1.568258 5.773216 84.015366 18.177210 174.261154 102.900848
[L_rear_hand03]
3 104.552910 9.721220 -10.420293 -158.860565 -13.011824 -160.383194 105.519653
4 104.552910 9.721220 -10.420293 -158.428436 -12.253967 -162.363235 105.519653
